<?xml version="1.0" standalone="no"?>
<!DOCTYPE svg PUBLIC "-//W3C//DTD SVG 20010904//EN"
 "http://www.w3.org/TR/2001/REC-SVG-20010904/DTD/svg10.dtd">
<svg version="1.0" xmlns="http://www.w3.org/2000/svg"
 width="512.000000pt" height="512.000000pt" viewBox="0 0 512.000000 512.000000"
 preserveAspectRatio="xMidYMid meet">

<g transform="translate(0.000000,512.000000) scale(0.100000,-0.100000)"
fill="#000000" stroke="none">
<path d="M4180 4514 c-39 -14 -198 -169 -1145 -1115 -605 -605 -1105 -1099
-1110 -1099 -5 0 -219 209 -475 464 -436 435 -468 465 -519 481 -70 23 -169
17 -231 -15 -30 -15 -143 -121 -345 -324 -342 -342 -350 -353 -350 -476 1
-136 -42 -87 833 -961 825 -824 828 -827 951 -863 67 -20 190 -21 252 -2 105
32 151 66 334 245 99 96 745 739 1437 1428 964 961 1262 1264 1280 1300 33 68
33 178 -1 248 -32 66 -603 641 -671 676 -59 29 -175 36 -240 13z"/>
</g>
</svg>
