<?xml version="1.0" standalone="no"?>
<!DOCTYPE svg PUBLIC "-//W3C//DTD SVG 20010904//EN"
 "http://www.w3.org/TR/2001/REC-SVG-20010904/DTD/svg10.dtd">
<svg version="1.0" xmlns="http://www.w3.org/2000/svg"
 width="512.000000pt" height="512.000000pt" viewBox="0 0 512.000000 512.000000"
 preserveAspectRatio="xMidYMid meet">

<g transform="translate(0.000000,512.000000) scale(0.100000,-0.100000)"
fill="#000000" stroke="none">
<path d="M725 4209 l-727 -732 731 -731 731 -731 140 140 140 141 -481 487
-481 487 1403 -2 1404 -3 103 -28 c517 -137 889 -521 1004 -1038 33 -150 33
-398 0 -548 -69 -307 -225 -568 -457 -759 -163 -136 -323 -218 -535 -276
l-115 -31 -1285 -5 -1285 -5 -3 -198 -2 -198 1302 4 1303 3 99 22 c375 86 665
247 917 509 511 530 633 1315 309 1978 -91 185 -214 350 -373 501 -234 221
-518 370 -852 446 l-100 22 -1422 3 c-783 2 -1423 7 -1423 11 0 4 219 226 487
494 l488 488 -140 140 c-77 77 -143 140 -146 140 -4 0 -334 -329 -734 -731z"/>
</g>
</svg>
